# xmcd
#
# Track frame offsets:
#   150
#   26554
#   51664
#   82800
#   102676
#   132781
#   152772
#   184859
#
# Disc length: 3273 seconds
#
# Revision: 0
# Processed by: cddbd v1.5.2PL0 Copyright (c) Steve Scherf et al.
# Submitted via: GXTranscoder 2.0.1939
#
DISCID=670cc708
DTITLE=Trout, Walter - Relentless - The Concert - CD2
DYEAR=2003
DGENRE=Blues-Rock
TTITLE0=Chatroom Girl
TTITLE1=Empty Eyes
TTITLE2=My Heart Is True
TTITLE3=Collingswood
TTITLE4=The Best You Got
TTITLE5=Mercy
TTITLE6=Serve Me Right To Suffer
TTITLE7=Long Time Love - Good Enough To Eat
EXTD=
EXTT0=
EXTT1=
EXTT2=
EXTT3=
EXTT4=
EXTT5=
EXTT6=
EXTT7=
PLAYORDER=
